<?xml version="1.0" standalone="no"?><!DOCTYPE svg PUBLIC "-//W3C//DTD SVG 1.1//EN" "http://www.w3.org/Graphics/SVG/1.1/DTD/svg11.dtd"><svg class="icon" width="200px" height="200.00px" viewBox="0 0 1024 1024" version="1.1" xmlns="http://www.w3.org/2000/svg"><path fill="#333333" d="M512.188416 694.971392c-18.300928 0-33.13664-14.831616-33.13664-33.13152 0-18.295808 14.835712-33.124352 33.13664-33.124352 18.291712 0 33.123328 14.828544 33.123328 33.124352C545.311744 680.139776 530.480128 694.971392 512.188416 694.971392L512.188416 694.971392 512.188416 694.971392zM512.188416 694.971392M512.188416 585.004032c-15.3088 0-27.756544-12.448768-27.756544-27.756544L484.431872 349.696c0-15.300608 12.447744-27.748352 27.756544-27.748352 15.295488 0 27.747328 12.447744 27.747328 27.748352l0 207.551488C539.931648 572.555264 527.483904 585.004032 512.188416 585.004032L512.188416 585.004032zM512.188416 585.004032M512.18432 190.464C333.93152 190.464 189.44 334.959616 189.44 513.207296c0 178.259968 144.49152 322.756608 322.74432 322.756608 178.243584 0 322.7392-144.49664 322.7392-322.756608C834.92352 334.959616 690.427904 190.464 512.18432 190.464L512.18432 190.464zM512.18432 792.931328c-154.235904 0-279.712768-125.47584-279.712768-279.724032 0-154.231808 125.479936-279.711744 279.712768-279.711744 154.231808 0 279.707648 125.479936 279.707648 279.711744C791.891968 667.455488 666.416128 792.931328 512.18432 792.931328L512.18432 792.931328zM512.18432 792.931328" /></svg>