<?xml version="1.0" standalone="no"?><!DOCTYPE svg PUBLIC "-//W3C//DTD SVG 1.1//EN" "http://www.w3.org/Graphics/SVG/1.1/DTD/svg11.dtd"><svg class="icon" width="200px" height="200.00px" viewBox="0 0 1024 1024" version="1.1" xmlns="http://www.w3.org/2000/svg"><path fill="#333333" d="M873.387008 479.147008 544.852992 479.147008 544.852992 150.612992C544.852992 132.468736 530.144256 117.76 512 117.76c-18.144256 0-32.852992 14.708736-32.852992 32.852992l0 328.532992L150.612992 479.145984C132.468736 479.147008 117.76 493.855744 117.76 512c0 18.144256 14.708736 32.852992 32.852992 32.852992l328.532992 0 0 328.532992C479.147008 891.531264 493.855744 906.24 512 906.24c18.144256 0 32.852992-14.708736 32.852992-32.852992L544.852992 544.852992l328.532992 0C891.531264 544.852992 906.24 530.144256 906.24 512 906.24 493.855744 891.531264 479.147008 873.387008 479.147008z" /></svg>