<?xml version="1.0" standalone="no"?><!DOCTYPE svg PUBLIC "-//W3C//DTD SVG 1.1//EN" "http://www.w3.org/Graphics/SVG/1.1/DTD/svg11.dtd"><svg class="icon" width="200px" height="200.00px" viewBox="0 0 1024 1024" version="1.1" xmlns="http://www.w3.org/2000/svg"><path fill="#333333" d="M895.015936 244.412416c-13.188096-12.367872-33.911808-11.79648-46.283776 1.475584l-436.632576 464.896L173.54752 475.756544c-12.859392-12.700672-33.667072-12.536832-46.367744 0.32768-12.695552 12.859392-12.531712 33.668096 0.328704 46.283776l262.47168 258.540544c0.083968 0.079872 0.247808 0.16384 0.32768 0.243712 0.083968 0.083968 0.16384 0.247808 0.247808 0.32768 2.048 1.968128 4.588544 3.111936 6.960128 4.42368 1.147904 0.656384 2.21184 1.72032 3.443712 2.212864 3.848192 1.475584 7.944192 2.295808 12.040192 2.295808 4.25984 0 8.604672-0.820224 12.535808-2.540544 1.308672-0.575488 2.376704-1.719296 3.60448-2.459648 2.455552-1.472512 4.996096-2.620416 7.123968-4.752384 0.083968-0.079872 0.16384-0.243712 0.247808-0.323584 0.079872-0.083968 0.16384-0.16384 0.328704-0.247808l459.651072-489.30816C908.863488 277.508096 908.208128 256.784384 895.015936 244.412416L895.015936 244.412416zM895.015936 244.412416" /></svg>