<?xml version="1.0" standalone="no"?><!DOCTYPE svg PUBLIC "-//W3C//DTD SVG 1.1//EN" "http://www.w3.org/Graphics/SVG/1.1/DTD/svg11.dtd"><svg class="icon" width="200px" height="200.00px" viewBox="0 0 1024 1024" version="1.1" xmlns="http://www.w3.org/2000/svg"><path fill="#333333" d="M564.973 510.75 875.89 201.209c14.697-14.626 14.773-38.321 0.156-53.103-14.693-14.782-38.297-14.782-53.07-0.156L511.979 457.572 203.718 148.106c-14.613-14.626-38.297-14.702-53.07-0.076-14.693 14.622-14.693 38.397-0.076 53.102l308.261 309.385L148.071 819.822c-14.697 14.626-14.773 38.321-0.156 53.103 7.346 7.35 16.96 11.104 26.573 11.104 9.534 0 19.147-3.678 26.417-10.948l310.841-309.385L822.9 875.976c7.346 7.35 16.883 11.024 26.573 11.024 9.614 0 19.151-3.674 26.497-10.948 14.693-14.626 14.693-38.32 0.076-53.102L564.973 510.75 564.973 510.75z" /></svg>