<?xml version="1.0" standalone="no"?><!DOCTYPE svg PUBLIC "-//W3C//DTD SVG 1.1//EN" "http://www.w3.org/Graphics/SVG/1.1/DTD/svg11.dtd"><svg class="icon" width="200px" height="199.80px" viewBox="0 0 1025 1024" version="1.1" xmlns="http://www.w3.org/2000/svg"><path fill="#333333" d="M538.380945 943.56617l-57.150865 0c-73.152656 0-142.110857-28.670133-194.169405-80.729704-52.060595-52.059572-80.729704-121.017772-80.729704-194.170429l0-121.380193c0-48.219346 39.229472-87.448819 87.448819-87.448819l432.053493 0c48.219346 0 87.448819 39.229472 87.448819 87.448819l0 121.380193c0 73.152656-28.670133 142.110857-80.729704 194.170429C680.491802 914.896038 611.533601 943.56617 538.380945 943.56617zM293.778766 511.026379c-19.993537 0-36.259466 16.265929-36.259466 36.259466l0 121.380193c0 123.354054 100.355702 223.71078 223.71078 223.71078l57.150865 0c123.354054 0 223.71078-100.356726 223.71078-223.71078l0-121.380193c0-19.993537-16.265929-36.259466-36.259466-36.259466L293.778766 511.026379zM287.584854 452.070577c-9.624622 0-18.844848-5.454737-23.195943-14.746629-50.679507-108.23272-17.563067-238.019228 78.742534-308.602179 53.796938-39.428087 119.9602-55.50871 186.29853-45.286196 66.340377 10.224561 124.588742 45.483787 164.016828 99.280726l42.102219 57.445715c8.35615 11.400893 5.887799 27.418041-5.514117 35.773167-11.401916 8.358197-27.417017 5.886776-35.773167-5.514117l-42.102219-57.445715c-65.010478-88.70091-190.064019-107.976773-278.768-42.966295-76.63558 56.167005-102.981716 159.459952-62.643482 245.607538 5.994273 12.801433 0.476061 28.03948-12.325372 34.033753C294.913122 451.291475 291.219298 452.070577 287.584854 452.070577zM501.487755 853.28658c-26.787388 0-48.579719-21.793355-48.579719-48.580743l0-72.454433c-21.455505-14.607394-34.438149-38.741126-34.438149-65.015597l0-8.549646c0-43.418809 35.324748-78.743557 78.743557-78.743557l8.549646 0c43.418809 0 78.743557 35.323725 78.743557 78.743557l0 8.549646c0 26.274471-12.982644 50.408203-34.438149 65.015597l0 72.454433C550.068498 831.493225 528.275143 853.28658 501.487755 853.28658zM497.213444 610.657239c-26.483323 0-48.029946 21.545599-48.029946 48.029946l0 8.549646c0 17.981796 10.016733 34.338842 26.141379 42.685777 5.096412 2.638299 8.29677 7.898517 8.29677 13.637867l0 81.146386c0 9.851903 8.014205 17.867132 17.866108 17.867132s17.867132-8.015229 17.867132-17.867132l0-81.146386c0-5.738326 3.200358-10.999568 8.29677-13.637867 16.124646-8.34796 26.141379-24.703982 26.141379-42.685777l0-8.549646c0-26.483323-21.546622-48.029946-48.029946-48.029946L497.213444 610.657239z" /></svg>