<?xml version="1.0" standalone="no"?><!DOCTYPE svg PUBLIC "-//W3C//DTD SVG 1.1//EN" "http://www.w3.org/Graphics/SVG/1.1/DTD/svg11.dtd"><svg class="icon" width="200px" height="200.00px" viewBox="0 0 1024 1024" version="1.1" xmlns="http://www.w3.org/2000/svg"><path fill="#333333" d="M774.961152 248.887296c-9.080832-9.080832-23.810048-9.080832-32.868352 0L249.083904 741.896192c-9.080832 9.080832-9.080832 23.78752 0 32.868352 9.080832 9.080832 23.78752 9.080832 32.868352 0l493.008896-493.008896C784.02048 272.67584 784.02048 257.946624 774.961152 248.887296L774.961152 248.887296zM775.0912 249.235456c-9.080832-9.080832-23.810048-9.080832-32.868352 0L249.213952 742.244352c-9.080832 9.080832-9.080832 23.78752 0 32.868352s23.78752 9.080832 32.868352 0l493.008896-493.008896C784.173056 273.04448 784.173056 258.316288 775.0912 249.235456L775.0912 249.235456zM548.160512 384.012288c-11.470848-3.21536-23.50592-5.08416-36.018176-5.08416-73.383936 0-132.886528 59.502592-132.886528 132.886528 0 12.491776 1.846272 24.548352 5.083136 36.018176L548.160512 384.012288zM476.732416 639.770624c11.296768 3.12832 23.136256 4.931584 35.432448 4.931584 73.383936 0 132.886528-59.502592 132.886528-132.886528 0-12.296192-1.803264-24.13568-4.931584-35.432448L476.732416 639.770624zM260.033536 672.11776l31.260672-31.260672c-49.379328-32.695296-91.849728-76.3392-123.45856-128.694272 72.94976-120.895488 203.708416-195.51744 344.175616-195.51744 31.478784 0 62.4128 3.93216 92.392448 11.122688l35.366912-35.366912c-40.94976-12.404736-83.898368-19.182592-127.760384-19.182592-160.216064 0-308.982784 87.483392-388.25472 228.299776L117.76 512.18432l5.99552 10.667008C157.863936 583.396352 204.853248 634.013696 260.033536 672.11776zM900.24448 501.517312C866.2016 441.01632 819.255296 390.441984 764.164096 352.33792l-31.239168 31.239168c49.292288 32.672768 91.697152 76.273664 123.262976 128.585728-72.928256 120.916992-203.685888 195.51744-344.175616 195.51744-31.391744 0-62.239744-3.93216-92.132352-11.057152l-35.388416 35.388416c40.884224 12.360704 83.746816 19.117056 127.520768 19.117056 160.237568 0 309.005312-87.483392 388.233216-228.32128L906.24 512.162816 900.24448 501.517312z" /></svg>