<?xml version="1.0" standalone="no"?><!DOCTYPE svg PUBLIC "-//W3C//DTD SVG 1.1//EN" "http://www.w3.org/Graphics/SVG/1.1/DTD/svg11.dtd"><svg class="icon" width="200px" height="199.80px" viewBox="0 0 1025 1024" version="1.1" xmlns="http://www.w3.org/2000/svg"><path fill="#333333" d="M538.380945 935.311375l-57.149841 0c-73.152656 0-142.110857-28.670133-194.170429-80.729704-52.059572-52.059572-80.729704-121.017772-80.729704-194.170429l0-121.380193c0-48.219346 39.229472-87.448819 87.448819-87.448819l432.052469 0c48.22037 0 87.449842 39.229472 87.449842 87.448819l0 121.380193c0 73.15368-28.670133 142.110857-80.729704 194.170429C680.491802 906.641243 611.533601 935.311375 538.380945 935.311375zM293.77979 502.771584c-19.993537 0-36.259466 16.265929-36.259466 36.259466l0 121.380193c0 123.354054 100.355702 223.71078 223.71078 223.71078l57.149841 0c123.355078 0 223.711804-100.356726 223.711804-223.71078l0-121.380193c0-19.993537-16.266952-36.259466-36.26049-36.259466L293.77979 502.771584zM734.846704 436.140451c-14.135428 0-25.594676-11.459248-25.594676-25.594676l0-71.221794c0-109.975205-89.471822-199.446003-199.447027-199.446003s-199.447027 89.470798-199.447027 199.446003l0 71.221794c0 14.135428-11.459248 25.594676-25.594676 25.594676s-25.594676-11.459248-25.594676-25.594676l0-71.221794c0-66.698703 26.139331-129.570489 73.603123-177.033257s110.334554-73.602099 177.033257-73.602099 129.570489 26.139331 177.033257 73.602099 73.603123 110.334554 73.603123 177.033257l0 71.221794C760.44138 424.681202 748.982132 436.140451 734.846704 436.140451zM501.487755 845.031785c-26.787388 0-48.580743-21.793355-48.580743-48.580743l0-72.454433c-21.454481-14.607394-34.437125-38.741126-34.437125-65.014573l0-8.549646c0-43.418809 35.324748-78.743557 78.743557-78.743557l8.549646 0c43.418809 0 78.742534 35.323725 78.742534 78.743557l0 8.549646c0 26.274471-12.982644 50.407179-34.437125 65.014573l0 72.454433C550.069522 823.23843 528.275143 845.031785 501.487755 845.031785zM497.214467 602.402444c-26.483323 0-48.029946 21.545599-48.029946 48.029946l0 8.549646c0 17.981796 10.016733 34.338842 26.140355 42.685777 5.097436 2.639323 8.29677 7.898517 8.29677 13.637867l0 81.146386c0 9.851903 8.015229 17.867132 17.867132 17.867132s17.867132-8.015229 17.867132-17.867132l0-81.146386c0-5.738326 3.199335-10.998544 8.29677-13.637867 16.123622-8.34796 26.140355-24.703982 26.140355-42.685777l0-8.549646c0-26.483323-21.545599-48.029946-48.028922-48.029946L497.214467 602.402444z" /></svg>