<?xml version="1.0" standalone="no"?><!DOCTYPE svg PUBLIC "-//W3C//DTD SVG 1.1//EN" "http://www.w3.org/Graphics/SVG/1.1/DTD/svg11.dtd"><svg class="icon" width="200px" height="200.00px" viewBox="0 0 1024 1024" version="1.1" xmlns="http://www.w3.org/2000/svg"><path fill="#333333" d="M512.011264 750.966784c-160.216064 0-308.983808-87.483392-388.255744-228.299776L117.76 512l5.99552-10.667008c79.270912-140.816384 228.03968-228.299776 388.255744-228.299776 160.237568 0 309.005312 87.483392 388.233216 228.32128L906.24 512l-5.99552 10.64448C821.016576 663.504896 672.248832 750.966784 512.011264 750.966784zM167.856128 512c72.972288 120.895488 203.708416 195.51744 344.17664 195.51744 140.490752 0 271.22688-74.600448 344.17664-195.51744-72.928256-120.916992-203.686912-195.51744-344.17664-195.51744C371.56352 316.48256 240.805888 391.104512 167.856128 512zM511.315968 511.65184m-132.887552 0a129.773 129.773 0 1 0 265.775104 0 129.773 129.773 0 1 0-265.775104 0Z" /></svg>