<?xml version="1.0" standalone="no"?><!DOCTYPE svg PUBLIC "-//W3C//DTD SVG 1.1//EN" "http://www.w3.org/Graphics/SVG/1.1/DTD/svg11.dtd"><svg class="icon" width="200px" height="200.00px" viewBox="0 0 1024 1024" version="1.1" xmlns="http://www.w3.org/2000/svg"><path fill="#333333" d="M575.364143 422.175205M763.577782 331.370083 569.383942 511.010463l194.193841 179.674149c15.318894 14.193257 15.318894 37.186947 0 51.341319L583.247694 908.931265l-13.863752 12.8077-27.725458 25.651216c-15.318894 14.228049-40.170908 14.228049-55.488779 0-9.280364-8.55177-12.263301-20.338211-10.225899-31.471782-0.36225-1.893116-1.237177-3.602038-1.237177-5.567809L474.706629 598.699618 361.364211 703.529151l-13.862729 12.880355-27.76332 25.617447c-15.318894 14.190187-40.170908 14.190187-55.489802 0-15.318894-14.155395-15.318894-37.150108 0-51.342342l27.76332-25.615401 13.898545-12.878309 152.567791-141.179416-166.43052-153.98814-27.76332-25.651216c-15.318894-14.224979-15.318894-37.186947 0-51.340295 15.35471-14.19121 40.170908-14.19121 55.488779 0l27.764344 25.65224 127.205147 117.708865L474.742445 111.707175c0-1.965771 0.874927-3.675716 1.237177-5.566786-2.000564-11.172457 0.945535-22.887266 10.225899-31.510668 15.31787-14.154371 40.168862-14.154371 55.488779 0l221.921345 205.400067C778.931468 294.183136 778.931468 317.145104 763.577782 331.370083L763.577782 331.370083zM680.362522 716.408483l-127.207194-117.707842 0 235.383962L680.362522 716.408483 680.362522 716.408483zM553.155329 187.936323 553.155329 423.355077l127.207194-117.708865L553.155329 187.936323 553.155329 187.936323z" /></svg>