<?xml version="1.0" standalone="no"?><!DOCTYPE svg PUBLIC "-//W3C//DTD SVG 1.1//EN" "http://www.w3.org/Graphics/SVG/1.1/DTD/svg11.dtd"><svg class="icon" width="200px" height="199.80px" viewBox="0 0 1025 1024" version="1.1" xmlns="http://www.w3.org/2000/svg"><path fill="#333333" d="M435.049094 666.226353c-3.305808 0-6.635164-1.062691-9.442388-3.255643-1.894006-1.479372-46.915042-36.752931-93.401117-82.48038-64.318398-63.265945-98.257962-114.030426-100.877833-150.880617-2.602467-36.612673 8.903876-71.254555 33.276151-100.180634 18.194743-21.595764 37.33649-32.526738 38.143234-32.9813 7.386624-4.164766 16.753251-1.558204 20.921088 5.82842 4.159647 7.373314 1.567418 16.719466-5.788492 20.898565-0.368563 0.213971-15.917841 9.299058-30.458689 26.846768-18.919585 22.833523-27.483563 48.876618-25.455441 77.409563 2.014813 28.345592 34.609121 74.927903 91.778414 131.162478 45.247293 44.508118 90.319518 79.820581 90.76896 80.17174 6.684306 5.221314 7.870875 14.871531 2.649561 21.555836C444.13418 664.199255 439.615184 666.225329 435.049094 666.226353zM588.909955 349.852607c-2.6168 0-5.268408-0.669557-7.695807-2.078288-7.335434-4.25793-9.829379-13.656295-5.571449-20.990706 9.819142-16.916033 27.928911-31.609425 53.82458-43.671684 18.405644-8.573193 34.185273-12.662198 34.848687-12.832147 8.216915-2.104906 16.583303 2.848176 18.689233 11.063043s-2.84408 16.579208-11.0569 18.687185c-14.826484 3.839201-56.225361 18.887847-69.743445 42.17286C599.356678 347.110905 594.203958 349.851583 588.909955 349.852607zM509.806024 840.784093c-4.398189 0-8.796378-1.132308-12.742054-3.396925-3.740918-2.147905-92.662966-53.477517-182.998864-130.279974-53.616752-45.583095-96.49193-90.700366-127.435893-134.096652-40.306496-56.528402-60.743333-110.834162-60.743333-161.408219 0-66.444803 22.326748-123.251676 64.566154-164.274823 39.076928-37.951786 92.274951-58.852399 149.795403-58.852399 60.483291 0 119.710396 22.824309 169.129621 64.743269 50.60477-45.317934 110.712332-70.00144 171.539616-70.00144 57.362789 0 110.466623 21.94078 149.530242 61.778382 20.022203 20.418409 35.632908 44.786588 46.400077 72.426791 11.20023 28.755107 16.880201 60.44234 16.880201 94.180219 0 50.574057-20.436837 104.879817-60.743333 161.408219-30.943964 43.397309-73.819142 88.513557-127.435893 134.096652-90.335898 76.802457-179.257946 128.132069-182.998864 130.279974C518.602403 839.651784 514.204214 840.784093 509.806024 840.784093zM340.247437 239.66343c-78.588965 0-163.172204 53.805129-163.172204 171.937869 0 73.174156 58.836018 161.871995 170.146242 256.505751 67.280214 57.200006 135.091773 100.467295 162.580455 117.260474 27.594132-16.867915 95.813159-60.409579 163.1548-117.742678 110.940636-94.450498 169.580087-182.98146 169.580087-256.023547 0-116.329851-81.305073-177.196039-161.620143-177.196039-54.144002 0-108.348408 25.46056-152.626174 71.691712-4.76061 4.97151-11.325132 7.81559-18.208053 7.889303-6.859373 0.049142-13.506823-2.627038-18.373906-7.494121C448.612225 263.396861 394.822453 239.66343 340.247437 239.66343z" /></svg>